<?xml version="1.0" encoding="iso-8859-1"?>
<!-- Generator: Adobe Illustrator 19.0.0, SVG Export Plug-In . SVG Version: 6.00 Build 0)  -->
<svg version="1.1" id="Capa_1" xmlns="http://www.w3.org/2000/svg" xmlns:xlink="http://www.w3.org/1999/xlink" x="0px" y="0px"
	 viewBox="0 0 512.001 512.001" style="enable-background:new 0 0 512.001 512.001;" xml:space="preserve">
<polygon style="fill:#F0F0FA;" points="393.067,66.001 354.667,104.401 316.267,66.001 277.867,104.401 239.467,66.001 
	201.067,104.401 162.667,66.001 162.667,480.134 179.201,463.601 217.601,502.001 256.001,463.601 294.401,502.001 332.801,463.601 
	371.201,502.001 409.601,463.601 448.001,502.001 448.001,87.868 431.467,104.401 "/>
<path d="M448.003,512.001c-2.603,0-5.16-1.016-7.073-2.929l-31.33-31.329l-31.328,31.329c-1.875,1.875-4.419,2.929-7.071,2.929
	s-5.195-1.054-7.071-2.929l-31.33-31.329l-31.328,31.329c-1.876,1.875-4.419,2.929-7.071,2.929s-5.195-1.054-7.071-2.929
	l-31.329-31.329l-31.329,31.329c-1.876,1.875-4.419,2.929-7.071,2.929s-5.195-1.054-7.071-2.929l-31.328-31.329l-31.329,31.329
	c-1.876,1.875-4.419,2.929-7.071,2.929s-5.196-1.054-7.071-2.929l-31.328-31.329l-31.329,31.329
	c-2.86,2.859-7.162,3.716-10.898,2.167c-3.736-1.548-6.173-5.194-6.173-9.239V300c0-5.523,4.478-10,10-10s10,4.477,10,10v177.858
	L95.33,456.53c1.876-1.875,4.419-2.929,7.071-2.929s5.195,1.054,7.071,2.929l31.328,31.329l31.329-31.329
	c1.876-1.875,4.419-2.929,7.071-2.929s5.196,1.054,7.071,2.929l31.328,31.329l31.329-31.329c3.906-3.905,10.236-3.905,14.143,0
	l31.329,31.329l31.328-31.329c1.875-1.875,4.419-2.929,7.071-2.929s5.195,1.054,7.071,2.929l31.329,31.329l31.328-31.329
	c1.876-1.875,4.419-2.929,7.071-2.929s5.195,1.054,7.071,2.929l21.329,21.329V34.143l-21.329,21.329
	c-1.876,1.875-4.419,2.929-7.071,2.929s-5.195-1.054-7.071-2.929l-31.328-31.329L339.87,55.472
	c-1.876,1.875-4.419,2.929-7.071,2.929s-5.196-1.054-7.071-2.929L294.4,24.143l-31.329,31.329c-3.906,3.905-10.236,3.905-14.143,0
	L217.6,24.143l-31.328,31.329c-1.875,1.875-4.419,2.929-7.071,2.929s-5.195-1.054-7.071-2.929L140.8,24.143l-31.328,31.329
	c-1.876,1.875-4.419,2.929-7.071,2.929s-5.195-1.054-7.071-2.929L74.001,34.143v172.358c0,5.523-4.478,10-10,10s-10-4.477-10-10
	v-196.5c0-4.044,2.437-7.691,6.173-9.239c3.736-1.549,8.038-0.693,10.898,2.167l31.329,31.329L133.729,2.93
	c1.875-1.875,4.419-2.929,7.071-2.929s5.195,1.054,7.071,2.929L179.2,34.259L210.529,2.93c1.876-1.875,4.419-2.929,7.071-2.929
	s5.195,1.054,7.071,2.929L256,34.259L287.33,2.93c1.876-1.875,4.419-2.929,7.071-2.929s5.195,1.054,7.071,2.929L332.8,34.259
	L364.13,2.93c1.876-1.875,4.419-2.929,7.071-2.929s5.196,1.054,7.071,2.929L409.6,34.259L440.929,2.93
	c2.86-2.859,7.162-3.716,10.898-2.167C455.563,2.311,458,5.957,458,10.002v492c0,4.044-2.437,7.691-6.173,9.239
	C450.591,511.752,449.291,512.001,448.003,512.001z"/>
<path d="M256.128,161.402c-12.892,0-23.38-9.104-23.38-20.293s10.488-20.293,23.38-20.293s23.38,9.104,23.38,20.293
	c0,5.523,4.478,10,10,10s10-4.477,10-10c0-19.021-14.267-34.994-33.38-39.201v-9.856c0-5.523-4.478-10-10-10s-10,4.477-10,10v9.856
	c-19.113,4.207-33.38,20.18-33.38,39.201c0,22.218,19.46,40.293,43.38,40.293c12.892,0,23.38,9.104,23.38,20.294
	s-10.488,20.293-23.38,20.293s-23.38-9.104-23.38-20.293c0-5.523-4.478-10-10-10s-10,4.477-10,10
	c0,19.021,14.267,34.994,33.38,39.201v7.99c0,5.523,4.478,10,10,10s10-4.477,10-10v-7.99c19.113-4.207,33.38-20.18,33.38-39.201
	C299.508,179.477,280.048,161.402,256.128,161.402z"/>
<path d="M330.131,420.671c-2.63,0-5.21-1.07-7.07-2.93c-1.87-1.86-2.93-4.44-2.93-7.07c0-2.64,1.06-5.22,2.93-7.07
	c1.86-1.87,4.44-2.93,7.07-2.93s5.21,1.06,7.07,2.93c1.859,1.86,2.93,4.43,2.93,7.07c0,2.63-1.07,5.21-2.93,7.07
	C335.341,419.601,332.76,420.671,330.131,420.671z"/>
<path d="M286.436,420.667H182.128c-5.522,0-10-4.477-10-10s4.478-10,10-10h104.309c5.522,0,10,4.477,10,10
	S291.959,420.667,286.436,420.667z"/>
<path d="M330.128,360.667h-148c-5.522,0-10-4.477-10-10s4.478-10,10-10h148c5.522,0,10,4.477,10,10S335.65,360.667,330.128,360.667z
	"/>
<path d="M330.128,300.667h-148c-5.522,0-10-4.477-10-10s4.478-10,10-10h148c5.522,0,10,4.477,10,10S335.65,300.667,330.128,300.667z
	"/>
<path d="M64.001,266.001c-2.63,0-5.21-1.07-7.07-2.93s-2.93-4.44-2.93-7.07s1.069-5.21,2.93-7.07c1.86-1.86,4.44-2.93,7.07-2.93
	s5.21,1.07,7.069,2.93c1.86,1.86,2.931,4.44,2.931,7.07s-1.07,5.21-2.931,7.07C69.211,264.931,66.631,266.001,64.001,266.001z"/>
<g>
</g>
<g>
</g>
<g>
</g>
<g>
</g>
<g>
</g>
<g>
</g>
<g>
</g>
<g>
</g>
<g>
</g>
<g>
</g>
<g>
</g>
<g>
</g>
<g>
</g>
<g>
</g>
<g>
</g>
</svg>
