<?xml version="1.0" encoding="iso-8859-1"?>
<!-- Generator: Adobe Illustrator 19.0.0, SVG Export Plug-In . SVG Version: 6.00 Build 0)  -->
<svg version="1.1" id="Capa_1" xmlns="http://www.w3.org/2000/svg" xmlns:xlink="http://www.w3.org/1999/xlink" x="0px" y="0px"
	 viewBox="0 0 512 512" style="enable-background:new 0 0 512 512;" xml:space="preserve">
<g>
	<g>
		<path d="M508.501,234.49c0-4.14-3.36-7.5-7.5-7.5H318.489v-62.494c0-4.143-3.357-7.5-7.5-7.5h-50h-12.488V129.5
			c0-8.44-1.65-16.63-4.91-24.33c-3.15-7.44-7.66-14.13-13.4-19.87c-5.73-5.74-12.42-10.24-19.859-13.39
			c-7.71-3.261-15.891-4.91-24.33-4.91c-8.44,0-16.62,1.649-24.33,4.91c-0.199,0.084-0.392,0.18-0.59,0.267
			c-0.198-0.087-0.391-0.183-0.59-0.267c-7.7-3.261-15.881-4.91-24.32-4.91c-8.44,0-16.63,1.649-24.33,4.91
			c-7.44,3.149-14.13,7.649-19.87,13.39c-5.74,5.74-10.24,12.42-13.39,19.87c-3.261,7.7-4.91,15.89-4.91,24.33v27.496H10.999
			c-4.142,0-7.5,3.357-7.5,7.5v0.002v0.002v339.99c0,4.143,3.358,7.5,7.5,7.5h249.797c0.065,0.002,0.128,0.01,0.193,0.01h50h0.001
			h0.001h190.01c4.13,0,7.5-3.36,7.5-7.5c0-0.07-0.009-0.139-0.011-0.209c0.002-0.071,0.011-0.14,0.011-0.211V234.49z
			 M186.001,81.99c12.68,0.01,24.609,4.949,33.59,13.92c8.97,8.979,13.91,20.909,13.91,33.59v27.496h-34.83V129.5
			c0-8.44-1.66-16.63-4.92-24.33c-3.141-7.45-7.65-14.13-13.391-19.87c-0.886-0.886-1.803-1.732-2.732-2.559
			C180.366,82.255,183.163,81.992,186.001,81.99z M161.084,89.052c3.107,1.922,6.019,4.209,8.667,6.858
			c8.97,8.979,13.91,20.909,13.92,33.59v27.496h-45.17V129.5c0-12.681,4.939-24.61,13.91-33.59
			C155.061,93.262,157.975,90.974,161.084,89.052z M102.581,95.91c8.979-8.971,20.91-13.91,33.59-13.92
			c2.838,0.002,5.635,0.265,8.372,0.751c-0.93,0.826-1.847,1.673-2.732,2.559c-5.74,5.74-10.25,12.42-13.399,19.87
			c-3.25,7.7-4.91,15.89-4.91,24.33v27.496h-34.83V129.5h-0.001C88.671,116.819,93.61,104.89,102.581,95.91z M253.489,496.99H18.499
			V171.996h55.172V224.5c0,4.13,3.36,7.49,7.5,7.49c4.13,0,7.5-3.36,7.5-7.49v-52.504h42.253c0.026,0,0.052,0.004,0.077,0.004
			c0.026,0,0.051-0.004,0.077-0.004h52.593V224.5c0,4.13,3.36,7.49,7.5,7.49c4.13,0,7.5-3.36,7.5-7.49v-52.504h42.253
			c0.026,0,0.051,0.004,0.077,0.004s0.051-0.004,0.077-0.004h12.411V496.99z M303.489,497h-35V171.996h35V497z M443.501,497H318.489
			V321.493c5.125-0.665,10.112-1.998,14.892-4.023c6.85-2.89,13-7.04,18.28-12.32c5.279-5.279,9.42-11.43,12.319-18.279
			c3-7.08,4.521-14.62,4.521-22.38c0-4.141-3.36-7.5-7.5-7.5c-4.13,0-7.5,3.359-7.5,7.5c0,11.34-4.42,22.01-12.44,30.05
			c-6.241,6.233-14.071,10.28-22.571,11.784V241.99h125.011V497z M493.501,497h-35V241.99h35V497z"/>
	</g>
</g>
<g>
	<g>
		<path d="M396.005,30.002c-12.406,0-22.5,10.094-22.5,22.5s10.094,22.5,22.5,22.5s22.5-10.094,22.5-22.5
			S408.411,30.002,396.005,30.002z M396.005,60.002c-4.136,0-7.5-3.364-7.5-7.5s3.364-7.5,7.5-7.5s7.5,3.364,7.5,7.5
			C403.505,56.638,400.141,60.002,396.005,60.002z"/>
	</g>
</g>
<g>
	<g>
		<path d="M456.005,90.002c-12.406,0-22.5,10.094-22.5,22.5s10.094,22.5,22.5,22.5s22.5-10.094,22.5-22.5
			S468.411,90.002,456.005,90.002z M456.005,120.002c-4.136,0-7.5-3.364-7.5-7.5c0-4.136,3.364-7.5,7.5-7.5s7.5,3.364,7.5,7.5
			C463.505,116.638,460.141,120.002,456.005,120.002z"/>
	</g>
</g>
<g>
	<g>
		<path d="M476.311,32.199c-2.93-2.928-7.678-2.928-10.608,0L375.701,122.2c-2.929,2.93-2.929,7.678,0,10.608
			c1.465,1.464,3.385,2.196,5.304,2.196s3.839-0.732,5.304-2.196l90.002-90.002C479.24,39.876,479.24,35.128,476.311,32.199z"/>
	</g>
</g>
<g>
	<g>
		<path d="M501.001,0h-150c-4.141,0-7.5,3.359-7.5,7.5c0,0.427,0.044,0.843,0.112,1.25c-0.068,0.407-0.112,0.823-0.112,1.25v47.5
			c0,4.13,3.359,7.5,7.5,7.5c4.14,0,7.5-3.37,7.5-7.5V15h135v127.997L426.001,179l-67.5-36.003V87.5c0-4.141-3.36-7.5-7.5-7.5
			c-4.141,0-7.5,3.359-7.5,7.5v59.935c-0.002,0.272,0.01,0.545,0.038,0.817c0.096,0.955,0.376,1.855,0.798,2.672
			c0.022,0.046,0.042,0.094,0.066,0.139c0.018,0.032,0.039,0.063,0.057,0.096c0.691,1.246,1.722,2.27,3.011,2.962l75,40
			c1.09,0.569,2.311,0.88,3.53,0.88s2.439-0.311,3.53-0.88l75-40c1.098-0.587,1.985-1.411,2.643-2.373
			c0.016-0.023,0.034-0.044,0.05-0.067c0.078-0.117,0.147-0.239,0.219-0.36c0.058-0.096,0.117-0.188,0.17-0.287
			c0.028-0.053,0.051-0.108,0.077-0.161c0.498-0.982,0.787-2.086,0.805-3.256c0-0.023,0.004-0.047,0.004-0.07
			c0-0.016,0.002-0.03,0.002-0.045V7.5C508.501,3.359,505.141,0,501.001,0z"/>
	</g>
</g>
<g>
</g>
<g>
</g>
<g>
</g>
<g>
</g>
<g>
</g>
<g>
</g>
<g>
</g>
<g>
</g>
<g>
</g>
<g>
</g>
<g>
</g>
<g>
</g>
<g>
</g>
<g>
</g>
<g>
</g>
</svg>
