<?xml version="1.0" encoding="iso-8859-1"?>
<!-- Generator: Adobe Illustrator 19.0.0, SVG Export Plug-In . SVG Version: 6.00 Build 0)  -->
<svg version="1.1" id="Capa_1" xmlns="http://www.w3.org/2000/svg" xmlns:xlink="http://www.w3.org/1999/xlink" x="0px" y="0px"
	 viewBox="0 0 480 480" style="enable-background:new 0 0 480 480;" xml:space="preserve">
<g>
	<g>
		<path d="M300.92,113.696c-1.935-1.53-4.474-2.068-6.864-1.456c-16.271,4.085-33.403-2.004-43.448-15.44l-4.208-5.6
			c-2.922-3.535-8.157-4.031-11.691-1.109c-0.404,0.334-0.775,0.705-1.109,1.109l-4.208,5.6
			c-10.049,13.431-27.18,19.512-43.448,15.424c-4.286-1.074-8.631,1.53-9.704,5.816c-0.161,0.641-0.241,1.299-0.24,1.96v30.4
			c0.034,28.576,15.341,54.954,40.136,69.16L236,230.944c2.459,1.405,5.477,1.405,7.936,0l19.896-11.368
			c24.812-14.201,40.134-40.588,40.168-69.176V120C303.999,117.536,302.863,115.211,300.92,113.696z M288,150.4
			c-0.028,22.836-12.26,43.916-32.072,55.272L240,214.792l-15.928-9.104C204.255,194.329,192.023,173.242,192,150.4v-21.048
			c18.301,1.29,36.124-6.208,48-20.192c11.89,13.965,29.703,21.458,48,20.192V150.4z"/>
	</g>
</g>
<g>
	<g>
		<rect x="248" y="256" width="16" height="16"/>
	</g>
</g>
<g>
	<g>
		<rect x="280" y="256" width="16" height="16"/>
	</g>
</g>
<g>
	<g>
		<rect x="312" y="256" width="16" height="16"/>
	</g>
</g>
<g>
	<g>
		<rect x="152" y="256" width="16" height="16"/>
	</g>
</g>
<g>
	<g>
		<rect x="184" y="256" width="16" height="16"/>
	</g>
</g>
<g>
	<g>
		<rect x="216" y="256" width="16" height="16"/>
	</g>
</g>
<g>
	<g>
		<rect x="232" y="152" width="16" height="16"/>
	</g>
</g>
<g>
	<g>
		<path d="M407.656,40H72c-17.673,0-32,14.327-32,32v216c0,17.673,14.327,32,32,32h335.656c17.673,0,32-14.327,32-32V72
			C439.656,54.327,425.329,40,407.656,40z M423.656,288c0,8.837-7.163,16-16,16H72c-8.837,0-16-7.163-16-16V72
			c0-8.837,7.163-16,16-16h335.656c8.837,0,16,7.163,16,16V288z"/>
	</g>
</g>
<g>
	<g>
		<path d="M416,0H64C28.67,0.04,0.04,28.67,0,64v256c0.04,35.33,28.67,63.96,64,64h117.392l-11.424,40H116
			c-15.464,0-28,12.536-28,28c0,15.464,12.536,28,28,28h248c15.464,0,28-12.536,28-28c0-15.464-12.536-28-28-28h-53.968l-11.424-40
			H416c35.33-0.04,63.96-28.67,64-64V64C479.96,28.67,451.33,0.04,416,0z M364,440c6.627,0,12,5.373,12,12c0,6.627-5.373,12-12,12
			H116c-6.627,0-12-5.373-12-12c0-6.627,5.373-12,12-12H364z M186.608,424l11.424-40h83.936l11.424,40H186.608z M464,320
			c-0.026,26.499-21.501,47.974-48,48H64c-26.499-0.026-47.974-21.501-48-48V64c0.026-26.499,21.501-47.974,48-48h352
			c26.499,0.026,47.974,21.501,48,48V320z"/>
	</g>
</g>
<g>
	<g>
		<rect x="232" y="336" width="16" height="16"/>
	</g>
</g>
<g>
</g>
<g>
</g>
<g>
</g>
<g>
</g>
<g>
</g>
<g>
</g>
<g>
</g>
<g>
</g>
<g>
</g>
<g>
</g>
<g>
</g>
<g>
</g>
<g>
</g>
<g>
</g>
<g>
</g>
</svg>
