<?xml version="1.0" encoding="iso-8859-1"?>
<!-- Generator: Adobe Illustrator 19.0.0, SVG Export Plug-In . SVG Version: 6.00 Build 0)  -->
<svg version="1.1" id="Capa_1" xmlns="http://www.w3.org/2000/svg" xmlns:xlink="http://www.w3.org/1999/xlink" x="0px" y="0px"
	 viewBox="0 0 512 512" style="enable-background:new 0 0 512 512;" xml:space="preserve">
<g>
	<g>
		<g>
			<path d="M418.133,0H93.867C70.314,0.028,51.228,19.114,51.2,42.667v426.667c0.028,23.553,19.114,42.639,42.667,42.667h324.267
				c23.553-0.028,42.639-19.114,42.667-42.667V42.667C460.772,19.114,441.686,0.028,418.133,0z M443.733,469.333
				c-0.015,14.132-11.468,25.585-25.6,25.6H93.867c-14.132-0.015-25.585-11.468-25.6-25.6v-384h375.467V469.333z M443.733,68.267
				H68.267v-25.6c0.015-14.132,11.468-25.585,25.6-25.6h324.267c14.132,0.015,25.585,11.468,25.6,25.6V68.267z"/>
			<path d="M108.459,36.608c-3.421-3.158-8.695-3.158-12.117,0c-0.753,0.829-1.359,1.78-1.792,2.813
				c-0.481,1.013-0.715,2.125-0.683,3.246c-0.022,2.27,0.87,4.453,2.475,6.058c1.605,1.605,3.788,2.497,6.058,2.475
				c2.27,0.022,4.453-0.87,6.058-2.475c1.605-1.605,2.497-3.788,2.475-6.058c-0.013-1.116-0.245-2.219-0.683-3.246
				C109.818,38.388,109.212,37.437,108.459,36.608z"/>
			<path d="M142.592,36.608c-0.425-0.341-0.858-0.683-1.367-1.025c-0.435-0.339-0.926-0.6-1.45-0.771
				c-0.51-0.258-1.059-0.43-1.625-0.508c-3.988-0.877-8.016,1.3-9.467,5.117c-0.438,1.027-0.67,2.13-0.683,3.246
				c0.03,2.26,0.914,4.424,2.475,6.059c1.627,1.572,3.796,2.459,6.059,2.475c2.27,0.022,4.453-0.87,6.058-2.475
				c1.605-1.605,2.497-3.788,2.475-6.058c-0.013-1.116-0.245-2.219-0.683-3.246C143.951,38.388,143.345,37.437,142.592,36.608z"/>
			<path d="M170.667,34.133c-4.713,0-8.533,3.82-8.533,8.533c-0.031,1.119,0.203,2.23,0.683,3.242
				c0.432,1.034,1.038,1.987,1.791,2.817c3.365,3.3,8.752,3.3,12.117,0c0.753-0.83,1.359-1.783,1.792-2.817
				c0.438-1.026,0.67-2.127,0.683-3.242C179.2,37.954,175.379,34.133,170.667,34.133z"/>
			<path d="M290.133,34.133h-68.267c-4.713,0-8.533,3.82-8.533,8.533s3.82,8.533,8.533,8.533h68.267c4.713,0,8.533-3.82,8.533-8.533
				S294.846,34.133,290.133,34.133z"/>
			<path d="M110.933,298.667h290.133c4.497,0.001,8.812-1.78,12-4.953c0.075-0.076,0.178-0.102,0.251-0.181
				c0.102-0.111,0.13-0.257,0.226-0.372c2.94-3.133,4.58-7.265,4.591-11.561V128c-0.011-9.421-7.646-17.056-17.067-17.067H110.933
				c-9.421,0.011-17.056,7.645-17.067,17.067v153.6C93.877,291.021,101.512,298.656,110.933,298.667z M125.941,281.6l78.334-65.258
				l22.109,22.109L176.046,281.6H125.941z M202.265,281.6l96.193-82.45l89.345,82.45H202.265z M110.933,128h290.133l0.008,142.631
				l-91.041-84.018c-6.36-5.872-16.11-6.053-22.683-0.421l-47.971,41.12l-23.029-23.032c-6.222-6.282-16.223-6.739-22.992-1.05
				l-82.425,68.662V128z"/>
			<path d="M153.6,145.067c-14.138,0-25.6,11.462-25.6,25.6c0.015,14.132,11.468,25.585,25.6,25.6c14.138,0,25.6-11.461,25.6-25.6
				S167.738,145.067,153.6,145.067z M153.6,179.2c-4.713,0-8.533-3.82-8.533-8.533c0.005-4.711,3.822-8.529,8.533-8.533
				c4.713,0,8.533,3.82,8.533,8.533S158.313,179.2,153.6,179.2z"/>
			<path d="M102.4,332.8h119.467c4.713,0,8.533-3.82,8.533-8.533s-3.82-8.533-8.533-8.533H102.4c-4.713,0-8.533,3.82-8.533,8.533
				S97.687,332.8,102.4,332.8z"/>
			<path d="M102.4,366.933h119.467c4.713,0,8.533-3.82,8.533-8.533s-3.82-8.533-8.533-8.533H102.4c-4.713,0-8.533,3.82-8.533,8.533
				S97.687,366.933,102.4,366.933z"/>
			<path d="M102.4,401.067h119.467c4.713,0,8.533-3.821,8.533-8.533c0-4.713-3.82-8.533-8.533-8.533H102.4
				c-4.713,0-8.533,3.821-8.533,8.533C93.867,397.246,97.687,401.067,102.4,401.067z"/>
			<path d="M102.4,435.2h307.2c4.713,0,8.533-3.82,8.533-8.533s-3.821-8.533-8.533-8.533H102.4c-4.713,0-8.533,3.82-8.533,8.533
				S97.687,435.2,102.4,435.2z"/>
			<path d="M102.4,469.333h307.2c4.713,0,8.533-3.82,8.533-8.533s-3.821-8.533-8.533-8.533H102.4c-4.713,0-8.533,3.821-8.533,8.533
				S97.687,469.333,102.4,469.333z"/>
			<path d="M401.067,315.733H264.533c-9.421,0.011-17.056,7.646-17.067,17.067V384c0.011,9.421,7.645,17.056,17.067,17.067h136.533
				c9.421-0.011,17.056-7.646,17.067-17.067v-51.2C418.123,323.379,410.488,315.744,401.067,315.733z M264.533,384v-51.2h136.533
				l0.009,51.2H264.533z"/>
		</g>
	</g>
</g>
<g>
</g>
<g>
</g>
<g>
</g>
<g>
</g>
<g>
</g>
<g>
</g>
<g>
</g>
<g>
</g>
<g>
</g>
<g>
</g>
<g>
</g>
<g>
</g>
<g>
</g>
<g>
</g>
<g>
</g>
</svg>
